<svg xmlns="http://www.w3.org/2000/svg" xmlns:xlink="http://www.w3.org/1999/xlink" width="800" viewBox="0 0 600 599.999999" height="800" preserveAspectRatio="xMidYMid meet"><defs><clipPath id="9bc3deedeb"><path d="M 63 60 L 537 60 L 537 540 L 63 540 Z M 63 60 " clip-rule="nonzero"></path></clipPath></defs><g clip-path="url(#9bc3deedeb)"><path fill="#00bf63" d="M 505.589844 256.453125 C 516.480469 223.769531 512.730469 187.964844 495.316406 158.234375 C 469.125 112.636719 416.476562 89.175781 365.054688 100.214844 C 342.179688 74.445312 309.316406 59.789062 274.859375 60 C 222.300781 59.878906 175.664062 93.71875 159.496094 143.730469 C 125.730469 150.644531 96.585938 171.78125 79.53125 201.734375 C 53.144531 247.214844 59.160156 304.546875 94.410156 343.546875 C 83.519531 376.230469 87.269531 412.035156 104.683594 441.765625 C 130.875 487.363281 183.523438 510.824219 234.945312 499.785156 C 257.804688 525.554688 290.683594 540.210938 325.140625 539.984375 C 377.730469 540.121094 424.378906 506.25 440.550781 456.195312 C 474.316406 449.28125 503.460938 428.144531 520.515625 398.191406 C 546.871094 352.710938 540.839844 295.425781 505.605469 256.425781 Z M 325.171875 508.621094 C 304.125 508.648438 283.738281 501.285156 267.585938 487.800781 C 268.320312 487.410156 269.59375 486.703125 270.421875 486.195312 L 366 430.996094 C 370.890625 428.21875 373.890625 423.015625 373.859375 417.390625 L 373.859375 282.644531 L 414.253906 305.96875 C 414.691406 306.179688 414.976562 306.601562 415.035156 307.078125 L 415.035156 418.664062 C 414.976562 468.285156 374.789062 508.515625 325.171875 508.621094 Z M 131.910156 426.074219 C 121.363281 407.863281 117.570312 386.519531 121.183594 365.804688 C 121.890625 366.226562 123.136719 366.988281 124.019531 367.5 L 219.601562 422.699219 C 224.445312 425.535156 230.445312 425.535156 235.304688 422.699219 L 351.988281 355.320312 L 351.988281 401.96875 C 352.019531 402.449219 351.796875 402.914062 351.421875 403.214844 L 254.804688 459 C 211.769531 483.78125 156.808594 469.050781 131.925781 426.074219 Z M 106.753906 217.441406 C 117.253906 199.199219 133.828125 185.25 153.570312 178.003906 C 153.570312 178.828125 153.523438 180.285156 153.523438 181.304688 L 153.523438 291.71875 C 153.496094 297.328125 156.496094 302.535156 161.371094 305.308594 L 278.054688 372.675781 L 237.660156 396 C 237.253906 396.269531 236.746094 396.316406 236.296875 396.121094 L 139.664062 340.289062 C 96.71875 315.421875 81.988281 260.476562 106.738281 217.453125 Z M 438.644531 294.675781 L 321.960938 227.296875 L 362.355469 203.984375 C 362.761719 203.714844 363.269531 203.671875 363.71875 203.863281 L 460.351562 259.648438 C 503.371094 284.503906 518.113281 339.539062 493.261719 382.558594 C 482.746094 400.769531 466.183594 414.71875 446.460938 421.980469 L 446.460938 308.265625 C 446.503906 302.65625 443.519531 297.464844 438.660156 294.675781 Z M 478.84375 234.164062 C 478.140625 233.730469 476.894531 232.980469 476.011719 232.46875 L 380.429688 177.269531 C 375.585938 174.433594 369.585938 174.433594 364.726562 177.269531 L 248.039062 244.648438 L 248.039062 198 C 248.011719 197.519531 248.234375 197.054688 248.609375 196.753906 L 345.226562 141.015625 C 388.261719 116.191406 443.28125 130.964844 468.089844 174.015625 C 478.574219 192.195312 482.371094 213.480469 478.816406 234.164062 Z M 226.078125 317.308594 L 185.671875 293.984375 C 185.234375 293.773438 184.949219 293.355469 184.890625 292.875 L 184.890625 181.289062 C 184.921875 131.609375 225.226562 91.351562 274.90625 91.378906 C 295.921875 91.378906 316.261719 98.761719 332.414062 112.199219 C 331.679688 112.589844 330.421875 113.296875 329.578125 113.804688 L 234 169.003906 C 229.109375 171.78125 226.109375 176.96875 226.140625 182.59375 L 226.078125 317.28125 Z M 248.023438 270 L 300 239.984375 L 351.976562 269.984375 L 351.976562 330 L 300 360 L 248.023438 330 Z M 248.023438 270 " fill-opacity="1" fill-rule="nonzero"></path></g></svg>